<?xml version="1.0" encoding="utf-8"?>
<!-- Generator: Adobe Illustrator 26.0.1, SVG Export Plug-In . SVG Version: 6.00 Build 0)  -->
<svg version="1.1" id="Layer_1" xmlns="http://www.w3.org/2000/svg" xmlns:xlink="http://www.w3.org/1999/xlink" x="0px" y="0px"
	 viewBox="0 0 40.02 40.02" style="enable-background:new 0 0 40.02 40.02;" xml:space="preserve">
<style type="text/css">
	.st0{fill:#2C3A8A;}
</style>
<g>
	<path class="st0" d="M19.63,1.9c0.56,0.11,1.12,0.19,1.67,0.33c3.67,0.97,6.43,4.21,6.84,7.99c0.02,0.15,0.1,0.31,0.2,0.42
		c0.41,0.41,0.63,0.89,0.63,1.47c0,1.61,0,3.22,0,4.83c0,0.55-0.21,1.02-0.59,1.42c-0.1,0.11-0.19,0.3-0.19,0.44
		c0.03,1.08-0.09,2.13-0.6,3.09c-1.09,2.05-2.79,3.15-5.12,3.22c-1.13,0.03-2.26,0.01-3.39,0c-0.73,0-1.24-0.48-1.24-1.16
		c0-0.68,0.49-1.16,1.23-1.17c1.07-0.01,2.15,0.01,3.22,0c1.77-0.02,3.14-1.09,3.48-2.76c0.09-0.45,0.06-0.92,0.08-1.37
		c0-0.07-0.04-0.15-0.08-0.2c-0.14-0.17-0.29-0.32-0.46-0.5c-0.17,0.37-0.3,0.75-0.5,1.09c-0.29,0.5-0.59,1-0.94,1.46
		c-0.37,0.51-0.92,0.72-1.55,0.72c-1,0-2,0.02-2.99-0.01c-1.1-0.03-1.99,0.34-2.65,1.28c-2.13-0.86-3.46-2.46-4.31-4.57
		c-0.08,0.1-0.14,0.18-0.21,0.25c-0.52,0.63-1.37,0.87-2.14,0.61c-0.75-0.26-1.3-0.96-1.31-1.76c-0.02-1.68-0.01-3.35,0-5.03
		c0-0.53,0.24-0.97,0.6-1.35c0.11-0.12,0.21-0.29,0.23-0.44c0.47-4.34,3.93-7.79,8.29-8.27c0.07-0.01,0.14-0.04,0.22-0.06
		C18.57,1.9,19.1,1.9,19.63,1.9z M25.27,11.16c0.14-0.16,0.28-0.31,0.39-0.48c0.07-0.1,0.13-0.25,0.12-0.37
		c-0.5-3.47-3.33-5.99-6.83-6.07c-3.54-0.08-6.66,2.62-7.06,6.1c-0.01,0.09,0.01,0.2,0.06,0.27c0.14,0.19,0.31,0.36,0.47,0.54
		c1.27-2.76,3.17-4.77,6.41-4.78C22.08,6.37,23.98,8.38,25.27,11.16z"/>
	<path class="st0" d="M28.36,23.68c1.11,0.64,2.08,1.46,2.91,2.46c1.88,2.27,2.67,7.2,2.55,10.11c-0.04,0.95-0.79,1.63-1.76,1.63
		c-2.18,0-4.36,0-6.54,0c-6.47,0-12.93-0.03-19.4,0.02c-1.58,0.01-2.32-0.76-2.28-2.31c0.08-3.29,1.24-8.37,3.67-10.59
		c1.34-1.23,2.91-2.04,4.67-2.5c0.21-0.05,0.35-0.03,0.52,0.13c1,1,2.17,1.73,3.51,2.18c0.12,0.04,0.25,0.17,0.31,0.29
		c0.48,0.95,1.25,1.53,2.3,1.56c1.43,0.05,2.87,0.06,4.3-0.04c2.06-0.15,3.72-1.13,5.03-2.72c0.06-0.07,0.11-0.14,0.17-0.2
		C28.32,23.7,28.33,23.7,28.36,23.68z"/>
</g>
</svg>
