<?xml version="1.0" encoding="utf-8"?>
<!-- Generator: Adobe Illustrator 26.0.1, SVG Export Plug-In . SVG Version: 6.00 Build 0)  -->
<svg version="1.1" id="Layer_1" xmlns="http://www.w3.org/2000/svg" xmlns:xlink="http://www.w3.org/1999/xlink" x="0px" y="0px"
	 viewBox="0 0 348.98 110.44" style="enable-background:new 0 0 348.98 110.44;" xml:space="preserve">
<style type="text/css">
	.st0{fill:url(#SVGID_1_);}
	.st1{fill:#FFFFFF;}
	.st2{fill:#231F20;}
</style>
<g>
	<g>
		
			<linearGradient id="SVGID_1_" gradientUnits="userSpaceOnUse" x1="901.5516" y1="-250.5713" x2="901.5516" y2="-199.7821" gradientTransform="matrix(1 0 0 1 -861.8442 266.5296)">
			<stop  offset="0" style="stop-color:#2CAAE1"/>
			<stop  offset="0.7147" style="stop-color:#2D398B"/>
		</linearGradient>
		<path class="st0" d="M64.88,96.47l-50.35,0c-1.44,0-2.6-1.16-2.6-2.6l0-81.17c0-1.44,1.16-2.6,2.6-2.6l50.35,0
			c1.44,0,2.6,1.16,2.6,2.6l0,81.17C67.48,95.31,66.32,96.47,64.88,96.47z"/>
		<path class="st1" d="M62.08,82.59l-0.01-0.42L61.8,67.54l0-0.14l-0.13,0l-1.6,0.03l0.11-3.98l0.01-0.2l-0.21,0l-4.2-0.09
			l-0.29-0.01l-0.01,0.3l-0.07,3.59L53.15,67l0.05-3.43l0.01-0.49l-0.5-0.01l-2.52-0.03l0.03-2.19l0.01-0.56l-0.58-0.01l-2-0.03
			c0.05-4.22,0.13-8.45,0.14-12.67l0-0.28l-0.19-0.21l-2.18-2.51l0.02-4.48l0-0.79l-0.8,0l-0.71,0l0.02-2.84l1.15,0.01l0.83,0
			l0-0.84l0.04-6.96l0-0.87l-0.88,0l-0.67,0c0.03-0.13,0.05-0.26,0.1-0.38c0.13-0.4,0.37-0.75,0.64-1.09
			c0.3-0.32,0.62-0.63,1.02-0.89c0.38-0.27,0.81-0.49,1.25-0.69c1.8-0.79,3.85-1.16,5.9-1.38c1.03-0.11,2.06-0.16,3.1-0.18
			c0.52-0.01,1.04-0.01,1.56,0l0.77,0.01l0.47,0.01c0.14-0.01,0.25-0.01,0.41-0.03c0.38-0.05,0.72-0.13,1.08-0.33
			c0.36-0.2,0.67-0.55,0.84-0.91c0.33-0.74,0.27-1.36,0.27-1.9l-0.01-0.45c-0.02-0.15,0-0.21-0.06-0.47
			c-0.09-0.44-0.3-0.79-0.61-1.08c-0.31-0.28-0.67-0.43-1-0.51c-0.35-0.08-0.64-0.11-1.02-0.09l0.06,0l-19.49,0.27
			c-3.25,0.06-6.5,0.05-9.74,0.08l-9.74,0.05l0.03,0c-0.6-0.02-1.2,0.08-1.71,0.51c-0.53,0.43-0.55,1.22-0.53,1.69
			c0,0.53-0.03,1.11,0.24,1.69c0.13,0.29,0.37,0.55,0.66,0.71c0.28,0.16,0.58,0.22,0.87,0.26c0.6,0.07,1.1-0.03,1.63-0.01
			c0.52-0.01,1.05-0.01,1.57,0c1.05,0.02,2.1,0.08,3.14,0.19c2.08,0.22,4.16,0.59,6.04,1.42c0.46,0.22,0.91,0.45,1.32,0.74
			c0.42,0.28,0.78,0.62,1.11,0.98c0.3,0.38,0.57,0.78,0.71,1.24c0.12,0.31,0.17,0.63,0.2,0.96l-1.19-0.01l-0.45-0.01l-0.01,0.46
			l-0.08,6.96l-0.01,0.53l0.54,0.01l1.4,0.02l-0.04,3.28l-0.9-0.01l-0.63-0.01l-0.01,0.65l-0.06,4.49l-2.24,2.51l-0.18,0.2l0,0.29
			l-0.11,12.41l-1.76-0.01l-0.87-0.01l0,0.88l-0.01,1.83l-2.18-0.01l-0.9,0l0,0.91l-0.01,2.93l-1.2-0.01l0.01-3.04l0-0.95l-0.96,0
			l-4.2-0.02l-0.97,0l0,0.98l-0.01,3.08l-0.71,0l-1,0l-0.01,1.01c-0.03,4.87-0.01,9.75,0.01,14.62l0.01,1.02l1.02,0l0.68,0
			l0.01,5.25l0,1.01l1.01,0l4.2-0.01l1,0l0-1l-0.01-5.18l2.07,0l1.06,0l-0.08-1.08c-0.01-0.14,0.01-0.43,0.06-0.58
			c0.05-0.18,0.12-0.26,0.17-0.3c0.05-0.04,0.15-0.07,0.31-0.08l0.02,0l0.12,0.02c0.08,0.01,0.17,0.02,0.18,0.04
			c0.07,0.05,0.07,0.02,0.22,0.1c0.48,0.22,1.02,0.58,1.55,0.92l1.64,1.07c0.56,0.36,1.14,0.7,1.73,1.02
			c0.6,0.32,1.22,0.61,1.86,0.87l0.99,0.34l1.02,0.26l1.05,0.16l1.12,0.05l0.97-0.06l1.09-0.18l1.01-0.28l0.98-0.36
			c0.63-0.27,1.25-0.57,1.84-0.9c0.59-0.33,1.16-0.68,1.71-1.05l1.62-1.1c0.53-0.35,1.06-0.73,1.55-0.97
			c0.23-0.13,0.52-0.18,0.54-0.21c0.17,0.01,0.35,0.03,0.35,0.04c0.05,0.01,0.13,0.04,0.18,0.08c0.21,0.1,0.38,0.64,0.35,1.08
			l-0.05,0.82l0.78-0.01l2.38-0.03l0.08,5.46l0.01,0.62l0.6-0.01l4.2-0.06l0.56-0.01l-0.01-0.54l-0.08-5.82l1.24-0.02L62.08,82.59z
			 M55.74,81.58l-2.37-0.03c-0.02-0.15-0.04-0.3-0.09-0.45c-0.12-0.41-0.37-0.87-0.79-1.18c-0.21-0.16-0.43-0.26-0.69-0.34
			c-0.31-0.08-0.45-0.08-0.61-0.09c-0.63,0.02-0.96,0.18-1.32,0.33c-0.68,0.32-1.22,0.69-1.77,1.05l-1.62,1.06
			c-0.54,0.34-1.08,0.66-1.62,0.96c-0.55,0.29-1.11,0.55-1.67,0.78l-0.86,0.3l-0.87,0.22l-0.83,0.13l-0.97,0.05
			c-0.19-0.02-0.56-0.04-0.83-0.06l-0.87-0.15l-0.86-0.24l-0.85-0.31c-0.56-0.24-1.11-0.51-1.65-0.81c-0.54-0.31-1.07-0.63-1.6-0.98
			l-1.6-1.09c-0.55-0.37-1.08-0.75-1.78-1.09c-0.13-0.08-0.45-0.19-0.68-0.26c-0.14-0.05-0.21-0.05-0.29-0.07l-0.12-0.02l-0.06-0.01
			l-0.03,0l-0.02,0l-0.14-0.01l-0.01,0c-0.46,0-1.02,0.12-1.49,0.47c-0.47,0.34-0.76,0.85-0.88,1.29c-0.03,0.09-0.03,0.18-0.05,0.27
			l-2.18,0l-0.99,0l0,0.99l-0.01,5.16l-2.19,0l0.01-5.27l0-1.02l-1.02,0l-0.68,0c0-4.2,0-8.4-0.04-12.6l0.69,0l1,0l0-0.99
			l-0.01-3.11l2.26-0.01l0.01,3.01l0,0.94l0.93,0l3.06-0.01l0.93,0l0-0.92l-0.01-2.96l2.15-0.01l0.89,0l0-0.89l-0.01-1.85l1.73-0.01
			l0.86-0.01l-0.01-0.85l-0.11-13l2.17-2.53l0.18-0.21l0-0.25l-0.05-4.13l0.86-0.01l0.63-0.01l-0.01-0.61l-0.06-4.46l-0.01-0.57
			l-0.56,0.01l-1.43,0.02l-0.07-5.96l1.2-0.01l0.46-0.01l-0.02-0.44c-0.03-0.57-0.1-1.16-0.32-1.7c-0.19-0.55-0.53-1.04-0.89-1.47
			c-0.39-0.42-0.81-0.8-1.29-1.09c-0.46-0.31-0.96-0.55-1.46-0.78c-2.02-0.85-4.15-1.21-6.28-1.42c-1.06-0.1-2.13-0.15-3.2-0.16
			c-0.53-0.01-1.07,0-1.6,0.01c-0.53-0.01-1.08,0.08-1.54,0.03c-0.48-0.05-0.87-0.23-1.05-0.62c-0.19-0.38-0.19-0.9-0.19-1.42
			c-0.01-0.57,0.01-0.96,0.33-1.25c0.29-0.28,0.82-0.38,1.26-0.36l0.02,0h0.01l9.74,0.05c3.25,0.02,6.5,0.02,9.74,0.08l19.49,0.27
			l0.06,0c0.34-0.01,0.8,0.1,0.94,0.27c0.08,0.07,0.14,0.2,0.15,0.28c0.02-0.01,0.02,0.21,0.03,0.32l0,0.35
			c0,0.51-0.03,0.99-0.16,1.22c-0.06,0.11-0.12,0.17-0.23,0.23c-0.11,0.06-0.29,0.1-0.44,0.12c-0.08,0.01-0.22,0.01-0.34,0.02
			l-0.05,0l-0.1-0.01l-0.2-0.01l-0.81-0.04c-0.54-0.01-1.08-0.02-1.62-0.01c-1.08,0.01-2.16,0.06-3.23,0.17
			c-2.15,0.21-4.33,0.57-6.42,1.46c-0.52,0.24-1.04,0.49-1.52,0.83c-0.5,0.32-0.95,0.72-1.37,1.18c-0.4,0.48-0.76,1.01-0.97,1.62
			c-0.24,0.6-0.31,1.23-0.34,1.85l-0.04,0.88l0.92,0l0.8,0l0.03,5.25l-1.13,0.01l-0.83,0l0,0.82l0.02,4.46l0,0.8l0.8,0l0.72,0
			l0.02,3.97l0,0.29l0.19,0.21l2.21,2.5c0.01,4.33,0.1,8.65,0.14,12.98l0.01,0.61l0.6-0.01l2.05-0.03l0.03,2.14l0.01,0.54l0.53-0.01
			l2.57-0.03l0.05,3.35l0.01,0.44l0.43-0.01l3.06-0.06l0.38-0.01l-0.01-0.36l-0.07-3.68l3.7-0.08l0.11,3.97l1.66,0.03l-0.31,14.05
			l-1.28-0.02l-0.45-0.01l-0.01,0.47l-0.08,5.72l-3.04-0.04l0.08-5.56l0.01-0.68L55.74,81.58z"/>
	</g>
	<g>
		<g>
			<polygon class="st2" points="79.08,90.2 84.24,90.2 84.24,88.52 79.08,88.52 79.08,84.55 84.56,84.55 84.56,82.86 77.09,82.86 
				77.09,96.45 84.86,96.45 84.86,94.76 79.08,94.76 			"/>
			<path class="st2" d="M92.4,86.42c-1.51,0-2.57,0.79-3.1,1.56l-0.09-1.37h-1.79l0.01,0.13c0.06,0.74,0.08,1.51,0.08,2.58v7.11
				h1.99l0-5.88c0-0.29,0.04-0.57,0.11-0.77c0.28-0.84,1.07-1.7,2.22-1.7c1.73,0,2.09,1.47,2.09,2.71l0,5.65h1.99v-5.82
				C95.9,86.63,92.98,86.42,92.4,86.42z"/>
			<path class="st2" d="M105.89,87.84c-0.43-0.63-1.3-1.42-2.92-1.42c-2.22,0-4.46,1.78-4.46,5.19c0,2.73,1.81,4.8,4.2,4.8
				c1.24,0,2.32-0.51,2.96-1.37v0.69c0,2.12-1.02,3.24-2.96,3.24c-1.01,0-2.01-0.27-2.74-0.75l-0.14-0.09l-0.52,1.59l0.08,0.05
				c0.75,0.5,2,0.81,3.26,0.81c0.85,0,2.44-0.15,3.59-1.18c0.97-0.91,1.4-2.29,1.4-4.49v-5.56c0-1.21,0.02-1.97,0.08-2.6l0.01-0.14
				h-1.8L105.89,87.84z M103.23,94.84c-2,0-2.71-1.79-2.71-3.32c0-2.09,1.1-3.5,2.73-3.5c1.11,0,1.97,0.66,2.32,1.78
				c0.06,0.18,0.09,0.39,0.09,0.73v1.72c0,0.32-0.05,0.64-0.13,0.89C105.19,94.17,104.29,94.84,103.23,94.84z"/>
			<rect x="110.86" y="86.62" class="st2" width="1.99" height="9.83"/>
			<path class="st2" d="M111.86,82.84c-0.69,0-1.21,0.52-1.21,1.21c0,0.69,0.49,1.19,1.17,1.19c0.73,0,1.23-0.49,1.23-1.19
				C113.05,83.35,112.55,82.84,111.86,82.84z"/>
			<path class="st2" d="M121.1,86.42c-1.51,0-2.57,0.79-3.1,1.56l-0.09-1.37h-1.79l0.01,0.13c0.06,0.74,0.08,1.51,0.08,2.58v7.11
				h1.99v-5.88c0-0.29,0.04-0.57,0.11-0.77c0.28-0.84,1.07-1.7,2.22-1.7c1.73,0,2.09,1.47,2.09,2.71l0,5.65h1.99l0-5.82
				C124.61,86.63,121.69,86.42,121.1,86.42z"/>
			<path class="st2" d="M131.83,86.42c-2.72,0-4.62,2.17-4.62,5.27c0,3.02,1.9,4.97,4.83,4.97c1.55,0,2.63-0.34,3.26-0.62L135.4,96
				l-0.38-1.49l-0.13,0.06c-0.55,0.24-1.29,0.48-2.6,0.48c-0.92,0-3.05-0.3-3.16-3.08l6.7,0l0.02-0.1c0.04-0.21,0.06-0.47,0.06-0.84
				C135.91,88.91,134.84,86.42,131.83,86.42z M131.69,87.92c0.66,0,1.18,0.2,1.57,0.6c0.62,0.63,0.71,1.55,0.72,1.96h-4.82
				C129.34,89.27,130.1,87.92,131.69,87.92z"/>
			<path class="st2" d="M142.46,86.42c-2.72,0-4.62,2.17-4.62,5.27c0,3.02,1.9,4.97,4.83,4.97c1.55,0,2.63-0.34,3.26-0.62l0.09-0.04
				l-0.38-1.49l-0.13,0.06c-0.55,0.24-1.29,0.48-2.6,0.48c-0.92,0-3.05-0.3-3.16-3.08l6.7,0l0.02-0.1c0.04-0.21,0.06-0.48,0.06-0.84
				C146.54,88.91,145.48,86.42,142.46,86.42z M142.32,87.92c0.66,0,1.18,0.2,1.57,0.6c0.62,0.63,0.71,1.55,0.72,1.96l-4.82,0
				C139.97,89.27,140.73,87.92,142.32,87.92z"/>
			<path class="st2" d="M153.55,86.42c-1.11,0-2.11,0.68-2.63,1.78l-0.07-1.58l-1.78,0l0.01,0.13c0.05,0.82,0.08,1.74,0.08,2.98
				v6.72h1.99l0-5.23c0-0.28,0.02-0.57,0.06-0.79c0.24-1.3,1.09-2.11,2.21-2.11c0.23,0,0.4,0,0.57,0.04l0.15,0.03v-1.91l-0.15-0.02
				C153.85,86.44,153.72,86.42,153.55,86.42z"/>
			<path class="st2" d="M157.43,82.84c-0.69,0-1.21,0.52-1.21,1.21c0,0.69,0.49,1.19,1.17,1.19c0.73,0,1.23-0.49,1.23-1.19
				C158.62,83.35,158.12,82.84,157.43,82.84z"/>
			<rect x="156.43" y="86.62" class="st2" width="1.99" height="9.83"/>
			<path class="st2" d="M166.67,86.42c-1.51,0-2.57,0.79-3.1,1.56l-0.09-1.37h-1.79l0.01,0.13c0.06,0.74,0.08,1.51,0.08,2.58v7.11
				h1.99l0-5.88c0-0.29,0.04-0.57,0.11-0.77c0.28-0.84,1.07-1.7,2.22-1.7c1.73,0,2.09,1.47,2.09,2.71l0,5.65l1.99,0v-5.82
				C170.18,86.63,167.26,86.42,166.67,86.42z"/>
			<path class="st2" d="M180.16,87.84c-0.43-0.63-1.3-1.42-2.92-1.42c-2.22,0-4.46,1.78-4.46,5.19c0,2.73,1.81,4.8,4.2,4.8
				c1.24,0,2.32-0.51,2.96-1.37v0.69c0,2.12-1.02,3.24-2.96,3.24c-1.01,0-2.01-0.27-2.74-0.75l-0.14-0.09l-0.52,1.59l0.08,0.05
				c0.75,0.5,2,0.81,3.26,0.81c0.85,0,2.44-0.15,3.59-1.18c0.97-0.91,1.4-2.29,1.4-4.49v-5.56c0-1.21,0.02-1.97,0.08-2.6l0.01-0.14
				h-1.8L180.16,87.84z M177.5,94.84c-2,0-2.71-1.79-2.71-3.32c0-2.09,1.1-3.5,2.73-3.5c1.11,0,1.97,0.66,2.32,1.78
				c0.06,0.18,0.09,0.39,0.09,0.73v1.72c0,0.32-0.05,0.64-0.13,0.89C179.47,94.17,178.57,94.84,177.5,94.84z"/>
			<path class="st2" d="M199.12,94.37l-0.39-0.42c0.9-1.1,1.5-2.67,1.88-4.9l0.02-0.15h-1.84L198.78,89
				c-0.24,1.6-0.63,2.82-1.18,3.71c-0.82-0.91-2-2.27-3.08-3.51c2.01-1.01,2.9-2.14,2.9-3.63c0-1.74-1.26-2.95-3.07-2.95
				c-2.3,0-3.51,1.73-3.51,3.43c0,0.9,0.38,1.89,1.08,2.79c-1.71,0.97-2.58,2.3-2.58,3.96c0,1.92,1.45,3.87,4.22,3.87
				c1.51,0,2.78-0.48,3.89-1.46c0.24,0.25,0.45,0.47,0.65,0.67c0.18,0.19,0.35,0.36,0.52,0.53l0.04,0.04h2.4l-0.19-0.21
				C200.23,95.57,199.67,94.97,199.12,94.37z M192.82,89.98c1.34,1.55,2.68,3.02,3.49,3.91l0.13,0.14c-0.67,0.69-1.6,1.08-2.56,1.08
				c-1.52,0-2.63-1.08-2.63-2.57C191.24,91.53,191.76,90.69,192.82,89.98z M193.59,88.13c-0.55-0.72-0.92-1.39-0.92-2.25
				c0-0.9,0.48-1.82,1.54-1.82c0.99,0,1.44,0.8,1.44,1.6C195.65,86.7,194.86,87.39,193.59,88.13z"/>
			<path class="st2" d="M220.5,82.86h-2.4l-2.41,6.54c-0.58,1.64-1.01,2.96-1.33,4.12c-0.35-1.31-0.76-2.67-1.25-4.12l-2.28-6.45
				l-0.03-0.08h-2.4l-0.94,13.46l-0.01,0.13h1.89l0.36-5.84c0.11-1.77,0.19-3.63,0.24-5.13c0.33,1.28,0.76,2.71,1.34,4.45l2.21,6.44
				h1.48l2.38-6.55c0.59-1.61,1.08-3.12,1.49-4.43c0.03,1.57,0.13,3.5,0.21,5.09l0.32,5.86l0.01,0.12h1.95l-0.84-13.47L220.5,82.86z
				"/>
			<path class="st2" d="M231.49,94.03v-3.58c0-1.84-0.65-4.02-3.77-4.02c-1.17,0-2.38,0.32-3.23,0.85l-0.08,0.05l0.48,1.42
				l0.13-0.09c0.64-0.43,1.55-0.69,2.45-0.69l0.04,0c1.66,0,2.01,1.13,2.01,2.07v0.07c-3.72,0.01-5.76,1.32-5.76,3.69
				c0,1.38,0.96,2.88,3.05,2.88c1.16,0,2.22-0.48,2.89-1.3l0.12,1.08h1.82l-0.02-0.14C231.54,95.71,231.49,94.94,231.49,94.03z
				 M229.56,91.56v1.54c0,0.12-0.01,0.31-0.07,0.51c-0.24,0.7-0.97,1.52-2.24,1.52c-0.72,0-1.5-0.4-1.5-1.54
				c0-1.35,1.23-2.04,3.66-2.04C229.46,91.56,229.51,91.56,229.56,91.56z"/>
			<path class="st2" d="M239.66,86.42c-1.51,0-2.57,0.79-3.1,1.56l-0.09-1.37h-1.79l0.01,0.13c0.06,0.74,0.08,1.51,0.08,2.58l0,7.11
				h1.99v-5.88c0-0.29,0.04-0.57,0.11-0.77c0.28-0.84,1.07-1.7,2.22-1.7c1.73,0,2.09,1.47,2.09,2.71v5.65h1.99v-5.82
				C243.17,86.63,240.25,86.42,239.66,86.42z"/>
			<path class="st2" d="M254.73,93.69v-7.07l-1.99,0v5.98c0,0.31-0.05,0.61-0.15,0.84c-0.28,0.7-1.02,1.52-2.18,1.52
				c-1.35,0-2.01-0.96-2.01-2.94v-5.41h-1.99v5.73c0,3.9,2.4,4.32,3.43,4.32c1.74,0,2.7-1,3.1-1.57l0.09,1.36h1.8l-0.01-0.13
				C254.76,95.63,254.73,94.8,254.73,93.69z"/>
			<path class="st2" d="M261.83,81.93c-0.95,0-1.81,0.33-2.42,0.93c-0.75,0.73-1.15,1.92-1.15,3.43v0.33h-1.33v1.58h1.33v8.25h1.97
				V88.2h2.32v-1.58h-2.32v-0.39c0-1.81,0.55-2.65,1.74-2.65c0.55,0,0.86,0.12,1.06,0.21l0.15,0.07l0.28-1.6l-0.09-0.04
				C263.11,82.11,262.56,81.93,261.83,81.93z"/>
			<path class="st2" d="M271.56,94.03v-3.58c0-1.84-0.65-4.02-3.77-4.02c-1.17,0-2.38,0.32-3.23,0.85l-0.08,0.05l0.48,1.42
				l0.13-0.09c0.64-0.43,1.55-0.69,2.45-0.69l0.04,0c1.66,0,2.01,1.13,2.01,2.07v0.07c-3.72,0.01-5.76,1.32-5.76,3.69
				c0,1.38,0.96,2.88,3.05,2.88c1.16,0,2.22-0.48,2.89-1.3l0.12,1.08h1.82l-0.02-0.14C271.6,95.71,271.56,94.94,271.56,94.03z
				 M269.63,91.56v1.54c0,0.12-0.01,0.31-0.07,0.51c-0.24,0.7-0.97,1.52-2.24,1.52c-0.72,0-1.5-0.4-1.5-1.54
				c0-1.35,1.23-2.04,3.66-2.04C269.52,91.56,269.58,91.56,269.63,91.56z"/>
			<path class="st2" d="M279.41,88.06c0.74,0,1.4,0.15,1.96,0.44l0.13,0.07l0.47-1.57l-0.09-0.05c-0.45-0.24-1.37-0.53-2.47-0.53
				c-3.1,0-5.27,2.15-5.27,5.23c0,3,1.97,5.01,4.89,5.01c1.2,0,2.23-0.29,2.81-0.57l0.09-0.04l-0.35-1.55l-0.14,0.06
				c-0.5,0.22-1.14,0.44-2.09,0.44c-1.92,0-3.2-1.39-3.2-3.46C276.15,89.81,277.16,88.06,279.41,88.06z"/>
			<path class="st2" d="M287.02,84.28l-1.95,0.59v1.75h-1.48v1.58h1.48v5.1c0,1.21,0.23,2.06,0.7,2.6c0.45,0.5,1.16,0.77,1.97,0.77
				c0.78,0,1.33-0.15,1.59-0.24l0.09-0.03l-0.09-1.58l-0.15,0.05c-0.27,0.08-0.54,0.11-0.97,0.11c-0.83,0-1.18-0.52-1.18-1.74V88.2
				l2.49,0v-1.58l-2.49,0V84.28z"/>
			<path class="st2" d="M300.2,93.69v-7.07h-1.99v5.98c0,0.31-0.05,0.61-0.15,0.84c-0.28,0.7-1.02,1.52-2.18,1.52
				c-1.35,0-2.01-0.96-2.01-2.94v-5.41h-1.99v5.73c0,3.9,2.4,4.32,3.43,4.32c1.74,0,2.7-1,3.1-1.57l0.09,1.36h1.8l-0.01-0.13
				C300.23,95.63,300.2,94.8,300.2,93.69z"/>
			<path class="st2" d="M307.94,86.42c-1.11,0-2.11,0.68-2.63,1.78l-0.07-1.58h-1.78l0.01,0.13c0.05,0.82,0.08,1.74,0.08,2.98v6.72
				h1.99v-5.23c0-0.28,0.02-0.57,0.06-0.79c0.24-1.3,1.09-2.11,2.21-2.11c0.23,0,0.4,0,0.57,0.04l0.15,0.03v-1.91l-0.15-0.02
				C308.24,86.44,308.11,86.42,307.94,86.42z"/>
			<rect x="310.83" y="86.62" class="st2" width="1.99" height="9.83"/>
			<path class="st2" d="M311.82,82.84c-0.69,0-1.21,0.52-1.21,1.21s0.49,1.19,1.17,1.19c0.73,0,1.23-0.49,1.23-1.19
				C313.01,83.35,312.51,82.84,311.82,82.84z"/>
			<path class="st2" d="M321.06,86.42c-1.51,0-2.57,0.79-3.1,1.56l-0.09-1.37h-1.79l0.01,0.13c0.06,0.74,0.08,1.51,0.08,2.58l0,7.11
				h1.99v-5.88c0-0.29,0.04-0.57,0.11-0.77c0.28-0.84,1.07-1.7,2.22-1.7c1.73,0,2.09,1.47,2.09,2.71v5.65h1.99v-5.82
				C324.57,86.63,321.65,86.42,321.06,86.42z"/>
			<path class="st2" d="M334.6,86.62l-0.05,1.22c-0.43-0.63-1.3-1.42-2.92-1.42c-2.22,0-4.46,1.78-4.46,5.19
				c0,2.73,1.81,4.8,4.2,4.8c1.24,0,2.32-0.51,2.96-1.37v0.69c0,2.12-1.02,3.24-2.96,3.24c-1.01,0-2.01-0.27-2.74-0.75l-0.14-0.09
				l-0.52,1.59l0.08,0.05c0.75,0.5,2,0.81,3.26,0.81c0.85,0,2.44-0.15,3.59-1.18c0.97-0.91,1.4-2.29,1.4-4.49v-5.56
				c0-1.21,0.02-1.97,0.08-2.6l0.01-0.14L334.6,86.62z M331.89,94.84c-2,0-2.71-1.79-2.71-3.32c0-2.09,1.1-3.5,2.73-3.5
				c1.11,0,1.97,0.66,2.32,1.78c0.06,0.18,0.09,0.39,0.09,0.73v1.72c0,0.32-0.05,0.64-0.13,0.89
				C333.86,94.17,332.96,94.84,331.89,94.84z"/>
		</g>
		<path class="st2" d="M99.45,37.26l-1.04-0.37c-5.97-2.11-13.4-4.73-13.4-11.68c0-5.77,4.42-11.95,10.99-11.95
			c6.36,0,9.03,2.55,11.74,7.26l0.27,0.46l3.59-2.36l-0.23-0.41c-2.07-3.66-5.94-8.53-15.56-8.53c-10.82,0-18.67,7.73-18.67,18.38
			c0,10.61,7.51,13.64,14.76,16.56c6.95,2.8,13.52,5.45,13.52,14.53c0,7.61-4.97,12.52-12.66,12.52c-2.78,0-5.53-1.08-7.74-3.05
			c-1.02-0.9-1.94-1.98-2.74-3.21c-0.37-0.56-0.68-1.18-0.94-1.83c-0.04-0.11-0.09-0.22-0.13-0.33c-0.05-0.15-0.43-1.4-0.65-2.16
			l-0.11-0.36l-4.72,0l0.08,0.57c0.21,1.59,1.01,4.92,2.67,7.26c1.19,1.69,2.92,3.24,5.02,4.5c2.93,1.76,6.48,2.65,10.55,2.65
			c11.02,0,19.65-8.45,19.65-19.23C113.69,47.64,108.37,40.45,99.45,37.26z"/>
		<polygon class="st2" points="177.95,74.86 177.95,70.69 154.82,70.69 154.82,44 175.2,44 175.2,39.85 154.82,39.85 154.82,14.34 
			176.77,14.34 176.77,10.19 145.65,10.19 145.65,74.86 		"/>
		<path class="st2" d="M336.77,74.87L307.83,9.11l-0.07-0.15h-0.54L277.9,74.85h5.22l8.78-19.82l27.91,0l8.59,19.84L336.77,74.87z
			 M293.43,51.39l12.43-28.57l12.11,28.57L293.43,51.39z"/>
		<path class="st2" d="M194.51,74.86l0-61.18l8.53,0c3.87,0,16.49,1.08,16.49,14.91c0,8.19-6.47,12.34-19.24,12.34l-5.58,0
			l23.58,33.96l9.52,0L206.55,44.4h0.61c12.8,0,20.44-5.95,20.44-15.91c0-11.45-9-18.28-24.07-18.28l-18.19,0l0,64.65L194.51,74.86z
			"/>
		<rect x="123.67" y="10.18" class="st2" width="9.17" height="64.65"/>
		<path class="st2" d="M244.14,74.86l0-61.18l8.53,0c3.87,0,16.49,1.08,16.49,14.91c0,8.19-6.47,12.34-19.24,12.34h-5.58
			l23.58,33.96l9.52,0L256.19,44.4l0.61,0c12.8,0,20.44-5.95,20.44-15.91c0-11.45-9-18.28-24.07-18.28l-18.19,0l0,64.65
			L244.14,74.86z"/>
	</g>
</g>
</svg>
