<?xml version="1.0" encoding="utf-8"?>
<!-- Generator: Adobe Illustrator 26.0.1, SVG Export Plug-In . SVG Version: 6.00 Build 0)  -->
<svg version="1.1" id="Layer_1" xmlns="http://www.w3.org/2000/svg" xmlns:xlink="http://www.w3.org/1999/xlink" x="0px" y="0px"
	 viewBox="0 0 40.02 40.02" style="enable-background:new 0 0 40.02 40.02;" xml:space="preserve">
<style type="text/css">
	.st0{fill:#2C3A8A;}
</style>
<g>
	<g>
		<path class="st0" d="M29.26,33.66H10.76c-5.14,0-9.33-4.18-9.33-9.33v-8.65c0-5.14,4.18-9.33,9.33-9.33h18.51
			c5.14,0,9.33,4.18,9.33,9.33v8.65C38.59,29.47,34.4,33.66,29.26,33.66z M10.76,7.99c-4.24,0-7.69,3.45-7.69,7.69v8.65
			c0,4.24,3.45,7.69,7.69,7.69h18.51c4.24,0,7.69-3.45,7.69-7.69v-8.65c0-4.24-3.45-7.69-7.69-7.69H10.76z"/>
	</g>
	<g>
		<path class="st0" d="M15.15,27.62V12.4l13.18,7.61L15.15,27.62z M16.78,15.23v9.57l8.28-4.78L16.78,15.23z"/>
	</g>
</g>
</svg>
